<svg width="375" height="812" viewBox="0 0 375 812" fill="none" xmlns="http://www.w3.org/2000/svg">
<g filter="url(#filter0_i_21:11)">
<path d="M356.415 509.928C453.331 404.061 564.273 518.643 607.63 589.167L618.149 833.691L-678.966 889.491L-693.352 555.088C-638.197 462.67 -598.825 611.935 -425.659 713.07C-252.493 814.205 -261.28 536.501 -172.903 429.412C-84.5264 322.322 -9.42631 525.666 98.9663 611.049C207.359 696.432 235.271 642.263 356.415 509.928Z" fill="url(#paint0_linear_21:11)"/>
</g>
<g filter="url(#filter1_i_21:11)">
<path d="M587.387 804.144C763.601 819.318 864.554 979.194 893.003 1057.23L802.713 1213.62L-974 187.836L-850.522 -26.0339C-736.491 -36.8416 -747.078 85.5367 -556.293 288.11C-365.507 490.684 -258.696 315.657 -93.499 323.119C71.6979 330.58 86.2791 514.829 196.265 654.973C306.251 795.117 367.121 785.176 587.387 804.144Z" fill="url(#paint1_linear_21:11)"/>
</g>
<g filter="url(#filter2_i_21:11)">
<path d="M254.199 680.874C437.297 697.928 543.431 863.255 573.61 943.786L481.134 1103.96L-1372.14 33.9715L-1245.67 -185.076C-1127.35 -195.265 -1137.35 -69.4325 -937.585 140.561C-737.823 350.555 -628.344 171.339 -456.747 180.366C-285.15 189.394 -268.503 379.092 -153.151 524.19C-37.799 669.288 25.3252 659.557 254.199 680.874Z" fill="url(#paint2_linear_21:11)"/>
</g>
<g filter="url(#filter3_i_21:11)">
<path d="M158.143 751.983C293.438 728.079 336.796 872.84 341.563 948.208L235.153 1132.52L-931.828 458.759L-786.305 206.706C-694.092 169.618 -730.074 300.275 -625.641 469.493C-521.209 638.711 -397.582 431.135 -269.216 401.637C-140.851 372.138 -170.995 561.955 -116.069 683.994C-61.142 806.034 -10.9765 781.863 158.143 751.983Z" fill="url(#paint3_linear_21:11)"/>
</g>
<defs>
<filter id="filter0_i_21:11" x="-693.352" y="398.983" width="1315.5" height="494.509" filterUnits="userSpaceOnUse" color-interpolation-filters="sRGB">
<feFlood flood-opacity="0" result="BackgroundImageFix"/>
<feBlend mode="normal" in="SourceGraphic" in2="BackgroundImageFix" result="shape"/>
<feColorMatrix in="SourceAlpha" type="matrix" values="0 0 0 0 0 0 0 0 0 0 0 0 0 0 0 0 0 0 127 0" result="hardAlpha"/>
<feOffset dx="4" dy="4"/>
<feGaussianBlur stdDeviation="5"/>
<feComposite in2="hardAlpha" operator="arithmetic" k2="-1" k3="1"/>
<feColorMatrix type="matrix" values="0 0 0 0 1 0 0 0 0 1 0 0 0 0 1 0 0 0 0.25 0"/>
<feBlend mode="normal" in2="shape" result="effect1_innerShadow_21:11"/>
</filter>
<filter id="filter1_i_21:11" x="-974" y="-26.6952" width="1871" height="1244.32" filterUnits="userSpaceOnUse" color-interpolation-filters="sRGB">
<feFlood flood-opacity="0" result="BackgroundImageFix"/>
<feBlend mode="normal" in="SourceGraphic" in2="BackgroundImageFix" result="shape"/>
<feColorMatrix in="SourceAlpha" type="matrix" values="0 0 0 0 0 0 0 0 0 0 0 0 0 0 0 0 0 0 127 0" result="hardAlpha"/>
<feOffset dx="4" dy="4"/>
<feGaussianBlur stdDeviation="5"/>
<feComposite in2="hardAlpha" operator="arithmetic" k2="-1" k3="1"/>
<feColorMatrix type="matrix" values="0 0 0 0 1 0 0 0 0 1 0 0 0 0 1 0 0 0 0.25 0"/>
<feBlend mode="normal" in2="shape" result="effect1_innerShadow_21:11"/>
</filter>
<filter id="filter2_i_21:11" x="-1372.14" y="-185.651" width="1949.75" height="1293.61" filterUnits="userSpaceOnUse" color-interpolation-filters="sRGB">
<feFlood flood-opacity="0" result="BackgroundImageFix"/>
<feBlend mode="normal" in="SourceGraphic" in2="BackgroundImageFix" result="shape"/>
<feColorMatrix in="SourceAlpha" type="matrix" values="0 0 0 0 0 0 0 0 0 0 0 0 0 0 0 0 0 0 127 0" result="hardAlpha"/>
<feOffset dx="4" dy="4"/>
<feGaussianBlur stdDeviation="5"/>
<feComposite in2="hardAlpha" operator="arithmetic" k2="-1" k3="1"/>
<feColorMatrix type="matrix" values="0 0 0 0 1 0 0 0 0 1 0 0 0 0 1 0 0 0 0.25 0"/>
<feBlend mode="normal" in2="shape" result="effect1_innerShadow_21:11"/>
</filter>
<filter id="filter3_i_21:11" x="-931.828" y="200.369" width="1277.39" height="936.146" filterUnits="userSpaceOnUse" color-interpolation-filters="sRGB">
<feFlood flood-opacity="0" result="BackgroundImageFix"/>
<feBlend mode="normal" in="SourceGraphic" in2="BackgroundImageFix" result="shape"/>
<feColorMatrix in="SourceAlpha" type="matrix" values="0 0 0 0 0 0 0 0 0 0 0 0 0 0 0 0 0 0 127 0" result="hardAlpha"/>
<feOffset dx="4" dy="4"/>
<feGaussianBlur stdDeviation="5"/>
<feComposite in2="hardAlpha" operator="arithmetic" k2="-1" k3="1"/>
<feColorMatrix type="matrix" values="0 0 0 0 1 0 0 0 0 1 0 0 0 0 1 0 0 0 0.25 0"/>
<feBlend mode="normal" in2="shape" result="effect1_innerShadow_21:11"/>
</filter>
<linearGradient id="paint0_linear_21:11" x1="-46.1565" y1="500.763" x2="-28.6954" y2="861.508" gradientUnits="userSpaceOnUse">
<stop stop-color="#A9E7D6"/>
<stop offset="1" stop-color="#4790A8"/>
</linearGradient>
<linearGradient id="paint1_linear_21:11" x1="47.287" y1="469.774" x2="-85.3728" y2="700.885" gradientUnits="userSpaceOnUse">
<stop stop-color="#A9E7D6"/>
<stop offset="1" stop-color="#4790A8"/>
<stop offset="1" stop-color="#4790A8"/>
</linearGradient>
<linearGradient id="paint2_linear_21:11" x1="-309.36" y1="332.416" x2="-445.242" y2="569.115" gradientUnits="userSpaceOnUse">
<stop stop-color="#A9E7D6"/>
<stop offset="1" stop-color="#4790A8"/>
</linearGradient>
<linearGradient id="paint3_linear_21:11" x1="-191.514" y1="523.542" x2="-347.313" y2="796.222" gradientUnits="userSpaceOnUse">
<stop stop-color="#A9E7D6"/>
<stop offset="1" stop-color="#4790A8"/>
</linearGradient>
</defs>
</svg>
