<svg width="1440" height="594" viewBox="0 0 1440 594" fill="none" xmlns="http://www.w3.org/2000/svg">
<g filter="url(#filter0_i_13:74)">
<path fill-rule="evenodd" clip-rule="evenodd" d="M610.47 699.954C465.459 694.426 437.836 603.826 408.825 508.672C393.221 457.494 377.217 405 342.33 363.716C272.015 280.506 183.452 314.854 81.4421 354.417C31.4623 373.801 -21.7457 394.438 -77.6176 403.113C-230.413 426.838 -269.417 384.013 -382.175 260.21C-394.804 246.345 -408.357 231.463 -423.1 215.546C-540.199 89.1136 -719.3 138.503 -794.213 179.002L-855.844 376.067L614.156 835.801L610.47 699.954ZM759.322 881.2L971.506 947.56L990.441 887.016L759.322 881.2Z" fill="url(#paint0_linear_13:74)"/>
</g>
<g filter="url(#filter1_i_13:74)">
<path d="M-300.912 309.574C-432.802 177.312 -628.117 223.043 -709.289 262.441L-771.746 462.148L1249.43 1094.26L1334.84 821.145C1265.83 718.977 1176.09 826.012 885.848 832.415C595.602 838.819 661.584 610.588 543.298 481.159C425.011 351.729 269.144 487.855 83.314 510.323C-102.516 532.791 -136.049 474.901 -300.912 309.574Z" fill="url(#paint1_linear_13:74)"/>
</g>
<g filter="url(#filter2_i_13:74)">
<path d="M315.646 534.771C204.803 381.926 14.3099 461.047 -67.0814 519.713L-148.18 779.027L1702.55 1357.83L1813.46 1003.2C1759.06 881.551 1662.16 1026.67 1385.79 1066.42C1109.42 1106.17 1196.98 810.402 1098.75 659.655C1000.51 508.908 837.631 698.019 658.683 746.692C479.736 795.365 454.2 725.827 315.646 534.771Z" fill="url(#paint2_linear_13:74)"/>
</g>
<g filter="url(#filter3_i_13:74)">
<path d="M248.302 592.377C181.875 465.144 45.1954 547.338 -14.8413 604.339L-87.8961 837.932L1151.23 1225.46L1251.14 906.008C1221.61 802.514 1145.17 936.631 951.822 989.827C758.471 1043.02 838.385 776.921 780.523 650.705C722.662 524.488 597.79 701.677 471.084 756.309C344.377 810.942 331.336 751.417 248.302 592.377Z" fill="url(#paint3_linear_13:74)"/>
</g>
<defs>
<filter id="filter0_i_13:74" x="-855.844" y="134.583" width="1850.28" height="816.977" filterUnits="userSpaceOnUse" color-interpolation-filters="sRGB">
<feFlood flood-opacity="0" result="BackgroundImageFix"/>
<feBlend mode="normal" in="SourceGraphic" in2="BackgroundImageFix" result="shape"/>
<feColorMatrix in="SourceAlpha" type="matrix" values="0 0 0 0 0 0 0 0 0 0 0 0 0 0 0 0 0 0 127 0" result="hardAlpha"/>
<feOffset dx="4" dy="4"/>
<feGaussianBlur stdDeviation="5"/>
<feComposite in2="hardAlpha" operator="arithmetic" k2="-1" k3="1"/>
<feColorMatrix type="matrix" values="0 0 0 0 1 0 0 0 0 1 0 0 0 0 1 0 0 0 0.25 0"/>
<feBlend mode="normal" in2="shape" result="effect1_innerShadow_13:74"/>
</filter>
<filter id="filter1_i_13:74" x="-771.746" y="221.634" width="2110.59" height="876.623" filterUnits="userSpaceOnUse" color-interpolation-filters="sRGB">
<feFlood flood-opacity="0" result="BackgroundImageFix"/>
<feBlend mode="normal" in="SourceGraphic" in2="BackgroundImageFix" result="shape"/>
<feColorMatrix in="SourceAlpha" type="matrix" values="0 0 0 0 0 0 0 0 0 0 0 0 0 0 0 0 0 0 127 0" result="hardAlpha"/>
<feOffset dx="4" dy="4"/>
<feGaussianBlur stdDeviation="5"/>
<feComposite in2="hardAlpha" operator="arithmetic" k2="-1" k3="1"/>
<feColorMatrix type="matrix" values="0 0 0 0 1 0 0 0 0 1 0 0 0 0 1 0 0 0 0.25 0"/>
<feBlend mode="normal" in2="shape" result="effect1_innerShadow_13:74"/>
</filter>
<filter id="filter2_i_13:74" x="-148.18" y="446.203" width="1965.64" height="915.629" filterUnits="userSpaceOnUse" color-interpolation-filters="sRGB">
<feFlood flood-opacity="0" result="BackgroundImageFix"/>
<feBlend mode="normal" in="SourceGraphic" in2="BackgroundImageFix" result="shape"/>
<feColorMatrix in="SourceAlpha" type="matrix" values="0 0 0 0 0 0 0 0 0 0 0 0 0 0 0 0 0 0 127 0" result="hardAlpha"/>
<feOffset dx="4" dy="4"/>
<feGaussianBlur stdDeviation="5"/>
<feComposite in2="hardAlpha" operator="arithmetic" k2="-1" k3="1"/>
<feColorMatrix type="matrix" values="0 0 0 0 1 0 0 0 0 1 0 0 0 0 1 0 0 0 0.25 0"/>
<feBlend mode="normal" in2="shape" result="effect1_innerShadow_13:74"/>
</filter>
<filter id="filter3_i_13:74" x="-87.8961" y="525.157" width="1343.04" height="704.305" filterUnits="userSpaceOnUse" color-interpolation-filters="sRGB">
<feFlood flood-opacity="0" result="BackgroundImageFix"/>
<feBlend mode="normal" in="SourceGraphic" in2="BackgroundImageFix" result="shape"/>
<feColorMatrix in="SourceAlpha" type="matrix" values="0 0 0 0 0 0 0 0 0 0 0 0 0 0 0 0 0 0 127 0" result="hardAlpha"/>
<feOffset dx="4" dy="4"/>
<feGaussianBlur stdDeviation="5"/>
<feComposite in2="hardAlpha" operator="arithmetic" k2="-1" k3="1"/>
<feColorMatrix type="matrix" values="0 0 0 0 1 0 0 0 0 1 0 0 0 0 1 0 0 0 0.25 0"/>
<feBlend mode="normal" in2="shape" result="effect1_innerShadow_13:74"/>
</filter>
<linearGradient id="paint0_linear_13:74" x1="149.096" y1="371.109" x2="57.2552" y2="661.631" gradientUnits="userSpaceOnUse">
<stop stop-color="#A9E7D6"/>
<stop offset="1" stop-color="#4790A8"/>
</linearGradient>
<linearGradient id="paint1_linear_13:74" x1="331.358" y1="483.61" x2="238.362" y2="778.051" gradientUnits="userSpaceOnUse">
<stop stop-color="#A9E7D6"/>
<stop offset="1" stop-color="#4790A8"/>
<stop offset="1" stop-color="#4790A8"/>
</linearGradient>
<linearGradient id="paint2_linear_13:74" x1="897.183" y1="685.867" x2="775.981" y2="1068.05" gradientUnits="userSpaceOnUse">
<stop stop-color="#A9E7D6"/>
<stop offset="1" stop-color="#4790A8"/>
</linearGradient>
<linearGradient id="paint3_linear_13:74" x1="639.689" y1="687.057" x2="530.035" y2="1031.18" gradientUnits="userSpaceOnUse">
<stop stop-color="#A9E7D6"/>
<stop offset="1" stop-color="#4790A8"/>
</linearGradient>
</defs>
</svg>
