<svg width="1145" height="1024" viewBox="0 0 1145 1024" fill="none" xmlns="http://www.w3.org/2000/svg">
<g filter="url(#filter0_i_13:70)">
<path d="M387.281 906.572C211.068 921.746 110.115 1081.62 81.6656 1159.66L171.956 1316.05L1948.67 290.265L1825.19 76.3944C1711.16 65.5867 1721.75 187.965 1530.96 390.538C1340.18 593.112 1233.36 418.085 1068.17 425.547C902.971 433.008 888.39 617.257 778.404 757.401C668.418 897.546 607.548 887.604 387.281 906.572Z" fill="url(#paint0_linear_13:70)"/>
</g>
<g filter="url(#filter1_i_13:70)">
<path d="M755.009 784.875C571.91 801.928 465.776 967.255 435.597 1047.79L528.073 1207.96L2381.35 137.972L2254.88 -81.0764C2136.56 -91.2644 2146.55 34.5676 1946.79 244.562C1747.03 454.555 1637.55 275.339 1465.95 284.366C1294.36 293.394 1277.71 483.092 1162.36 628.19C1047.01 773.288 983.882 763.557 755.009 784.875Z" fill="url(#paint1_linear_13:70)"/>
</g>
<g filter="url(#filter2_i_13:70)">
<path d="M851.064 855.983C715.769 832.079 672.411 976.84 667.644 1052.21L774.054 1236.52L1941.03 562.759L1795.51 310.706C1703.3 273.618 1739.28 404.275 1634.85 573.493C1530.42 742.711 1406.79 535.136 1278.42 505.637C1150.06 476.138 1180.2 665.955 1125.28 787.994C1070.35 910.034 1020.18 885.863 851.064 855.983Z" fill="url(#paint2_linear_13:70)"/>
</g>
<defs>
<filter id="filter0_i_13:70" x="81.6656" y="75.733" width="1871" height="1244.32" filterUnits="userSpaceOnUse" color-interpolation-filters="sRGB">
<feFlood flood-opacity="0" result="BackgroundImageFix"/>
<feBlend mode="normal" in="SourceGraphic" in2="BackgroundImageFix" result="shape"/>
<feColorMatrix in="SourceAlpha" type="matrix" values="0 0 0 0 0 0 0 0 0 0 0 0 0 0 0 0 0 0 127 0" result="hardAlpha"/>
<feOffset dx="4" dy="4"/>
<feGaussianBlur stdDeviation="5"/>
<feComposite in2="hardAlpha" operator="arithmetic" k2="-1" k3="1"/>
<feColorMatrix type="matrix" values="0 0 0 0 1 0 0 0 0 1 0 0 0 0 1 0 0 0 0.25 0"/>
<feBlend mode="normal" in2="shape" result="effect1_innerShadow_13:70"/>
</filter>
<filter id="filter1_i_13:70" x="435.597" y="-81.6514" width="1949.75" height="1293.61" filterUnits="userSpaceOnUse" color-interpolation-filters="sRGB">
<feFlood flood-opacity="0" result="BackgroundImageFix"/>
<feBlend mode="normal" in="SourceGraphic" in2="BackgroundImageFix" result="shape"/>
<feColorMatrix in="SourceAlpha" type="matrix" values="0 0 0 0 0 0 0 0 0 0 0 0 0 0 0 0 0 0 127 0" result="hardAlpha"/>
<feOffset dx="4" dy="4"/>
<feGaussianBlur stdDeviation="5"/>
<feComposite in2="hardAlpha" operator="arithmetic" k2="-1" k3="1"/>
<feColorMatrix type="matrix" values="0 0 0 0 1 0 0 0 0 1 0 0 0 0 1 0 0 0 0.25 0"/>
<feBlend mode="normal" in2="shape" result="effect1_innerShadow_13:70"/>
</filter>
<filter id="filter2_i_13:70" x="667.644" y="304.369" width="1277.39" height="936.146" filterUnits="userSpaceOnUse" color-interpolation-filters="sRGB">
<feFlood flood-opacity="0" result="BackgroundImageFix"/>
<feBlend mode="normal" in="SourceGraphic" in2="BackgroundImageFix" result="shape"/>
<feColorMatrix in="SourceAlpha" type="matrix" values="0 0 0 0 0 0 0 0 0 0 0 0 0 0 0 0 0 0 127 0" result="hardAlpha"/>
<feOffset dx="4" dy="4"/>
<feGaussianBlur stdDeviation="5"/>
<feComposite in2="hardAlpha" operator="arithmetic" k2="-1" k3="1"/>
<feColorMatrix type="matrix" values="0 0 0 0 1 0 0 0 0 1 0 0 0 0 1 0 0 0 0.25 0"/>
<feBlend mode="normal" in2="shape" result="effect1_innerShadow_13:70"/>
</filter>
<linearGradient id="paint0_linear_13:70" x1="927.382" y1="572.202" x2="1060.04" y2="803.313" gradientUnits="userSpaceOnUse">
<stop stop-color="#A9E7D6"/>
<stop offset="1" stop-color="#4790A8"/>
<stop offset="1" stop-color="#4790A8"/>
</linearGradient>
<linearGradient id="paint1_linear_13:70" x1="1318.57" y1="436.416" x2="1454.45" y2="673.115" gradientUnits="userSpaceOnUse">
<stop stop-color="#A9E7D6"/>
<stop offset="1" stop-color="#4790A8"/>
</linearGradient>
<linearGradient id="paint2_linear_13:70" x1="1200.72" y1="627.542" x2="1356.52" y2="900.222" gradientUnits="userSpaceOnUse">
<stop stop-color="#A9E7D6"/>
<stop offset="1" stop-color="#4790A8"/>
</linearGradient>
</defs>
</svg>
